# xmcd
#
# Track frame offsets:
#	150
#	14090
#	29690
#	46367
#	62502
#	81575
#	99162
#	115512
#	125890
#	142155
#	158805
#	172745
#	188342
#	205020
#	221155
#	240225
#	257815
#	274167
#	284542
#	300807
#
# Disc length: 4232 seconds
#
# Revision: 1
# Processed by: cddbd v1.5.1PL2 Copyright (c) Steve Scherf et al.
# Submitted via: audiograbber 1.83.01
#
DISCID=19108614
DTITLE=Top Hits Monthly Country - Thmc0311
DYEAR=1900
DGENRE=Karaoke
TTITLE0=Rachel Proctor (Vocal) - Days Like This
TTITLE1=Rushlow (Vocal) - I Can't Be Your Friend
TTITLE2=Billy Currington (Vocal) - Walk A Little Straighter
TTITLE3=Darryl Worley (Vocal) - Tennessee River Run
TTITLE4=Montgomery Gentry (Vocal) - Hell Yeah
TTITLE5=Mark Wills (Vocal) - And The Crowd Goes Wild
TTITLE6=George Strait (Vocal) - Cowboys Like Us
TTITLE7=Tracy Byrd (Vocal) - Drinkin' Bone
TTITLE8=Jennifer Hanson (Vocal) - Half A Heart Tattoo
TTITLE9=Jo Dee Messina (Vocal) - I Wish
TTITLE10=Rachel Proctor - Days Like This
TTITLE11=Rushlow - I Can't Be Your Friend
TTITLE12=Billy Currington - Walk A Little Straighter
TTITLE13=Darryl Worley - Tennessee River Run
TTITLE14=Montgomery Gentry - Hell Yeah
TTITLE15=Mark Wills - And The Crowd Goes Wild
TTITLE16=George Strait - Cowboys Like Us
TTITLE17=Tracy Byrd - Drinkin' Bone
TTITLE18=Jennifer Hanson - Half A Heart Tattoo
TTITLE19=Jo Dee Messina - I Wish
EXTD=
EXTT0=
EXTT1=
EXTT2=
EXTT3=
EXTT4=
EXTT5=
EXTT6=
EXTT7=
EXTT8=
EXTT9=
EXTT10=
EXTT11=
EXTT12=
EXTT13=
EXTT14=
EXTT15=
EXTT16=
EXTT17=
EXTT18=
EXTT19=
PLAYORDER=
